<svg width="32" height="32" viewBox="0 0 32 32" fill="none" xmlns="http://www.w3.org/2000/svg">
<path fill-rule="evenodd" clip-rule="evenodd" d="M16.536 4.156C16.3757 4.05425 16.1898 4.00022 16 4.00022C15.8102 4.00022 15.6243 4.05425 15.464 4.156L4.464 11.156C4.32186 11.2462 4.20481 11.3709 4.1237 11.5185C4.04258 11.666 4.00004 11.8316 4 12V27C4 27.2652 4.10536 27.5196 4.29289 27.7071C4.48043 27.8946 4.73478 28 5 28H27C27.2652 28 27.5196 27.8946 27.7071 27.7071C27.8946 27.5196 28 27.2652 28 27V12C28 11.8316 27.9574 11.666 27.8763 11.5185C27.7952 11.3709 27.6781 11.2462 27.536 11.156L16.536 4.156ZM10 22H22V20H10V22Z" fill="currentColor"/>
</svg>
